<?xml version="1.0" encoding="utf-8"?>
<!-- Generator: Adobe Illustrator 22.0.1, SVG Export Plug-In . SVG Version: 6.00 Build 0)  -->
<svg version="1.1" id="Calque_1" xmlns="http://www.w3.org/2000/svg" xmlns:xlink="http://www.w3.org/1999/xlink" x="0px" y="0px"
	 viewBox="0 0 96 96" style="enable-background:new 0 0 96 96;" xml:space="preserve">
  <style type="text/css">
	.st0{fill:#FBDA32;}
</style>
<g id="Calque_1_1_">
	<g>
		<path class="st0"  d="M63.4,57L63.4,57c-2.1,3.6-5.4,6.4-9.4,7.8c-0.5,0.2-0.8,0.8-0.6,1.3c0.2,0.4,0.6,0.7,1,0.7c0.1,0,0.2,0,0.3-0.1
			c4.4-1.6,8.1-4.7,10.5-8.7c0.3-0.5,0.1-1.1-0.4-1.4C64.3,56.4,63.7,56.5,63.4,57z"/>
		<path class="st0"  d="M65.9,54c0.1,0,0.2,0,0.3,0c0.5,0,0.9-0.3,1-0.8c0.2-0.9,0.4-1.8,0.6-2.8c0.1-0.6-0.3-1.1-0.9-1.2
			c-0.6-0.1-1.1,0.3-1.2,0.9l0,0c-0.1,0.8-0.3,1.7-0.5,2.5C65.1,53.3,65.4,53.9,65.9,54z"/>
		<path class="st0"  d="M48,17.9c-16.6,0-30.1,13.5-30.1,30.1S31.4,78.1,48,78.1S78.1,64.6,78.1,48S64.6,17.9,48,17.9z M48,71.9
			c-13.2,0-23.9-10.7-23.9-23.9S34.8,24.1,48,24.1S71.9,34.8,71.9,48S61.2,71.9,48,71.9z"/>
		<path class="st0"  d="M48,14.1c1.2,0,2.1-1,2.1-2.1V4.1C50.1,3,49.2,2,48,2s-2.1,1-2.1,2.1V12C45.9,13.1,46.8,14.1,48,14.1z"/>
		<path class="st0"  d="M28.1,17.9c0.4,0.7,1.1,1.1,1.8,1.1c0.4,0,0.7-0.1,1.1-0.3c1-0.6,1.4-1.9,0.8-2.9L27.9,9c-0.3-0.5-0.7-0.8-1.3-1
			C26,7.9,25.5,7.9,25,8.2c-0.5,0.3-0.8,0.7-1,1.3c-0.1,0.6-0.1,1.1,0.2,1.6L28.1,17.9z"/>
		<path class="st0"  d="M8.9,27.9l6.8,3.9c0.3,0.2,0.7,0.3,1.1,0.3c0.8,0,1.5-0.4,1.9-1.1c0.6-1,0.2-2.3-0.8-2.9l-6.8-3.9c-1-0.6-2.3-0.2-2.9,0.8
			C7.6,26,7.9,27.3,8.9,27.9z"/>
		<path class="st0"  d="M14.1,48c0-1.2-1-2.1-2.1-2.1H4.1C3,45.9,2,46.8,2,48s1,2.1,2.1,2.1H12C13.1,50.1,14.1,49.2,14.1,48z"/>
		<path class="st0"  d="M15.7,64.2l-6.8,3.9c-1,0.6-1.4,1.9-0.8,2.9c0.4,0.7,1.1,1.1,1.8,1.1c0.4,0,0.7-0.1,1.1-0.3l6.8-3.9
			c0.5-0.3,0.8-0.7,1-1.3c0.1-0.6,0.1-1.1-0.2-1.6C18.1,63.9,16.7,63.6,15.7,64.2z"/>
		<path class="st0"  d="M31.1,77.4c-0.5-0.3-1.1-0.4-1.6-0.2c-0.6,0.1-1,0.5-1.3,1L24.3,85c-0.3,0.5-0.4,1.1-0.2,1.6c0.1,0.6,0.5,1,1,1.3
			c0.3,0.2,0.7,0.3,1.1,0.3c0.8,0,1.5-0.4,1.8-1.1l3.9-6.8C32.4,79.2,32.1,77.9,31.1,77.4z"/>
		<path class="st0"  d="M48,81.9c-1.2,0-2.1,1-2.1,2.1v7.8c0,1.2,1,2.1,2.1,2.1c1.2,0,2.1-1,2.1-2.1V84C50.1,82.9,49.2,81.9,48,81.9z"/>
		<path class="st0"  d="M67.9,78.1L67.9,78.1c-0.6-1-1.9-1.4-2.9-0.8s-1.4,1.9-0.8,2.9l3.9,6.8c0.4,0.7,1.1,1.1,1.8,1.1c0.4,0,0.7-0.1,1.1-0.3
			c0.5-0.3,0.8-0.7,1-1.3c0.1-0.6,0.1-1.1-0.2-1.6L67.9,78.1z"/>
		<path class="st0"  d="M87.1,68.1l-6.8-3.9c-1-0.6-2.3-0.2-2.9,0.8c-0.6,1-0.2,2.3,0.8,2.9l6.8,3.9c0.3,0.2,0.7,0.3,1.1,0.3
			c0.8,0,1.5-0.4,1.8-1.1c0.3-0.5,0.4-1.1,0.2-1.6C87.9,68.8,87.5,68.4,87.1,68.1z"/>
		<path class="st0"  d="M91.9,45.9h-7.8c-1.2,0-2.1,1-2.1,2.1s1,2.1,2.1,2.1h7.8c1.2,0,2.1-1,2.1-2.1C94,46.8,93,45.9,91.9,45.9z"/>
		<path class="st0"  d="M79.2,32.1c0.4,0,0.7-0.1,1.1-0.3l6.8-3.9c0.5-0.3,0.8-0.7,1-1.3c0.1-0.6,0.1-1.1-0.2-1.6c-0.6-1-1.9-1.4-2.9-0.8
			l-6.8,3.9c-1,0.6-1.4,1.9-0.8,2.9C77.7,31.7,78.4,32.1,79.2,32.1z"/>
		<path class="st0"  d="M64.9,18.6L64.9,18.6c0.3,0.2,0.7,0.3,1.1,0.3c0.8,0,1.5-0.4,1.8-1.1l3.9-6.8c0.6-1,0.2-2.3-0.8-2.9
			c-1-0.6-2.3-0.2-2.9,0.8l-3.9,6.8c-0.3,0.5-0.4,1.1-0.2,1.6C64.1,17.9,64.5,18.4,64.9,18.6z"/>
	</g>
</g>
</svg>
