<?xml version="1.0" encoding="utf-8"?>
<!-- Generator: Adobe Illustrator 22.0.1, SVG Export Plug-In . SVG Version: 6.00 Build 0)  -->
<svg version="1.1" id="Calque_1" xmlns="http://www.w3.org/2000/svg" xmlns:xlink="http://www.w3.org/1999/xlink" x="0px" y="0px"
	 viewBox="0 0 107.4 98.7" style="enable-background:new 0 0 107.4 98.7;" xml:space="preserve">
<style type="text/css">
	.st0{fill:#FBD933;}
	.st1{fill:#FBDA32;}
	.st2{fill:#A3BCCC;}
	.st3{fill:#294E66;}
</style>
<g>
	<path class="st0" d="M77.8,85.3L77.8,85.3c-0.7-1.2-2.2-1.6-3.4-0.9c-1.2,0.7-1.6,2.2-0.9,3.4l4.6,8c0.5,0.8,1.3,1.3,2.1,1.3
		c0.5,0,0.8-0.1,1.3-0.4c0.6-0.4,0.9-0.8,1.2-1.5c0.1-0.7,0.1-1.3-0.2-1.9L77.8,85.3z"/>
	<path class="st0" d="M99.3,74l-8-4.6c-1.2-0.7-2.7-0.2-3.4,0.9c-0.7,1.2-0.2,2.7,0.9,3.4l8,4.6c0.4,0.2,0.8,0.4,1.3,0.4
		c0.9,0,1.8-0.5,2.1-1.3c0.4-0.6,0.5-1.3,0.2-1.9C100.3,74.8,99.8,74.3,99.3,74z"/>
	<path class="st0" d="M104.4,47.4h-9.1c-1.4,0-2.5,1.2-2.5,2.5c0,1.3,1.2,2.5,2.5,2.5h9.1c1.4,0,2.5-1.2,2.5-2.5
		C106.9,48.4,105.7,47.4,104.4,47.4z"/>
	<path class="st0" d="M89.3,30.6c0.5,0,0.8-0.1,1.3-0.4l8-4.6c0.6-0.4,0.9-0.8,1.2-1.5c0.1-0.7,0.1-1.3-0.2-1.9
		c-0.7-1.2-2.2-1.6-3.4-0.9l-8,4.6c-1.2,0.7-1.6,2.2-0.9,3.4C87.6,30.2,88.4,30.6,89.3,30.6z"/>
	<path class="st0" d="M71.9,13.5L71.9,13.5c0.4,0.2,0.8,0.4,1.3,0.4c0.9,0,1.8-0.5,2.1-1.3l4.6-8c0.7-1.2,0.2-2.7-0.9-3.4
		s-2.7-0.2-3.4,0.9l-4.6,8c-0.4,0.6-0.5,1.3-0.2,1.9C70.9,12.7,71.4,13.2,71.9,13.5z"/>
</g>
<path class="st1" d="M46.8,91.1c-23,0-41.6-18.7-41.6-41.6S23.8,7.8,46.8,7.8s41.6,18.7,41.6,41.6S69.7,91.1,46.8,91.1z M46.8,12.8
	c-20.2,0-36.6,16.4-36.6,36.6s16.4,36.6,36.6,36.6s36.6-16.4,36.6-36.6S66.9,12.8,46.8,12.8z"/>
<path class="st1" d="M59.6,81.4c-0.6,0-1.1-0.3-1.4-0.9c-0.3-0.8,0-1.6,0.8-2c5-2.1,9.3-5.5,12.7-9.7c0.5-0.7,1.5-0.8,2.1-0.3
	c0.7,0.5,0.8,1.5,0.3,2.1c-3.6,4.7-8.4,8.4-13.9,10.7C60,81.4,59.8,81.4,59.6,81.4z"/>
<path class="st1" d="M77.3,63.7c-0.2,0-0.4,0-0.6-0.1c-0.8-0.3-1.1-1.2-0.8-2c0.9-2.1,1.5-4.4,1.9-6.7c0.1-0.8,0.9-1.4,1.7-1.2
	c0.8,0.1,1.4,0.9,1.2,1.7c-0.4,2.5-1.2,5-2.1,7.3C78.4,63.3,77.9,63.7,77.3,63.7z"/>
<g>
	<path class="st2" d="M46.8,91.1c-23,0-41.6-18.7-41.6-41.6c0-21.3,15.9-39.1,37.1-41.4c0.9-0.1,1.9,0.3,2.4,1.1
		c0.5,0.8,0.5,1.8,0.1,2.6c-3.2,5.5-5.3,11.3-6.5,17.5c-0.3,1.4-1.6,2.2-2.9,2c-1.4-0.3-2.2-1.6-2-2.9c1-5,2.5-9.9,4.7-14.5
		c-16.1,4-27.8,18.5-27.8,35.6c0,20.2,16.4,36.6,36.6,36.6c2,0,4-0.2,5.9-0.5c-3.8-3.4-7.2-7.2-10-11.5c-0.8-1.1-0.5-2.7,0.7-3.5
		c1.1-0.8,2.7-0.5,3.5,0.7c3.5,5.2,7.9,9.8,12.9,13.6c0.8,0.6,1.1,1.5,1,2.4c-0.2,0.9-0.8,1.7-1.7,2C55,90.5,50.9,91.1,46.8,91.1z"
		/>
</g>
<g>
	<path class="st3" d="M23.9,57.6v-2.9c0-0.9,0.3-1.8,0.9-2.6c0.6-0.9,1.3-1.6,2.2-2.4l2.9-2.1c0.9-0.7,1.8-1.5,2.4-2.2
		c0.7-0.8,1-1.6,1-2.4c0-0.7-0.2-1.3-0.7-1.9c-0.5-0.5-1.2-0.8-2.1-0.8c-0.8,0-1.4,0.2-1.9,0.7c-0.5,0.5-0.8,1.1-0.8,2
		c0,0.4-0.2,0.7-0.5,1s-0.9,0.4-1.5,0.4c-1.2,0-1.7-0.7-1.7-2.1c0-1.6,0.6-3,1.9-4c1.3-1,2.8-1.5,4.5-1.5c1.8,0,3.4,0.5,4.7,1.6
		c1.3,1.1,2,2.5,2,4.4c0,1.2-0.3,2.3-1,3.4c-0.7,1.1-1.4,2-2.4,2.7c-0.9,0.7-1.9,1.4-2.8,2c-0.9,0.6-1.7,1.2-2.4,1.9
		c-0.7,0.6-1,1.2-1,1.8v0.7h8.4c0.3,0,0.6,0.2,0.9,0.5c0.3,0.3,0.4,0.7,0.4,1.2c0,0.5-0.1,0.9-0.4,1.2c-0.2,0.4-0.5,0.5-0.8,0.5
		H25.6c-0.4,0-0.7-0.1-1.1-0.4C24.1,58.3,23.9,58,23.9,57.6z"/>
	<path class="st3" d="M37.4,52.6c0-0.3,0.1-0.5,0.2-0.8L44.7,38c0.3-0.7,0.9-1,1.7-1c0.4,0,0.8,0.1,1.3,0.4c0.5,0.3,0.7,0.6,0.7,1.1
		c0,0.1-0.1,0.3-0.2,0.5l-5.8,11.5h3.5v-3.3c0-0.4,0.2-0.7,0.6-1c0.4-0.2,0.8-0.3,1.4-0.3c0.5,0,1,0.1,1.4,0.3
		c0.4,0.2,0.6,0.5,0.6,1v3.3h1.4c0.4,0,0.7,0.2,0.9,0.5c0.2,0.3,0.3,0.7,0.3,1.2c0,0.4-0.1,0.8-0.4,1.2c-0.3,0.3-0.5,0.5-0.9,0.5
		h-1.4v3.7c0,0.4-0.2,0.7-0.6,0.9c-0.4,0.2-0.8,0.3-1.4,0.3c-0.5,0-1-0.1-1.4-0.3c-0.4-0.2-0.6-0.5-0.6-0.9v-3.7h-7.2
		c-0.4,0-0.7-0.1-0.9-0.4S37.4,53,37.4,52.6z"/>
	<path class="st3" d="M54.3,57.6V38.1c0-0.4,0.2-0.7,0.6-0.9c0.4-0.2,0.8-0.3,1.4-0.3c0.5,0,1,0.1,1.4,0.3c0.4,0.2,0.6,0.5,0.6,0.9
		V46h6.7v-7.8c0-0.4,0.2-0.7,0.6-0.9c0.4-0.2,0.8-0.3,1.4-0.3c0.5,0,1,0.1,1.4,0.3c0.4,0.2,0.6,0.5,0.6,0.9v19.5
		c0,0.4-0.2,0.7-0.6,0.9c-0.4,0.2-0.8,0.3-1.4,0.3c-0.5,0-1-0.1-1.4-0.3c-0.4-0.2-0.6-0.5-0.6-0.9V49h-6.7v8.6
		c0,0.4-0.2,0.7-0.6,0.9c-0.4,0.2-0.8,0.3-1.4,0.3c-0.5,0-1-0.1-1.4-0.3C54.5,58.3,54.3,58,54.3,57.6z"/>
</g>
<path class="st2" d="M1,21.1c0.1,0.4,0.4,0.6,0.8,0.6l3.4,0l0.1,3.4c0,0.4,0.3,0.7,0.6,0.8c0.3,0.1,0.7-0.1,0.9-0.4l1.8-2.9l3,1.6
	c0.3,0.2,0.7,0.1,1-0.1c0.3-0.3,0.4-0.6,0.2-1l-1.7-3l2.9-1.7c0.3-0.2,0.5-0.6,0.4-0.9c-0.1-0.4-0.4-0.6-0.8-0.6l-3.4,0l-0.1-3.4
	c0-0.4-0.3-0.7-0.6-0.8s-0.7,0.1-0.9,0.4L6.7,16l-3-1.6c-0.3-0.1-0.5-0.1-0.8,0c-0.1,0-0.2,0.1-0.2,0.2c-0.3,0.3-0.3,0.6-0.1,0.9
	l1.7,3l-2.9,1.8C1.1,20.4,1,20.7,1,21.1z M6,20.1l-1.4,0l1.1-0.7c0.4-0.2,0.5-0.7,0.3-1.1l-0.6-1.2l1.2,0.6C7,18,7.5,17.8,7.7,17.5
	l0.7-1.1l0,1.3c0,0.5,0.4,0.8,0.8,0.8l1.4,0l-1.1,0.7c-0.4,0.2-0.5,0.7-0.3,1.1l0.6,1.2l-1.2-0.6c-0.4-0.2-0.8-0.1-1.1,0.3l-0.7,1.2
	l0-1.3C6.8,20.4,6.4,20.1,6,20.1z"/>
<path class="st2" d="M12.3,10.8c0.1,0.2,0.3,0.4,0.5,0.4l2.4,0l0,2.4c0,0.2,0.2,0.5,0.4,0.6c0.2,0.1,0.5-0.1,0.6-0.3l1.2-2l2.1,1.2
	c0.2,0.1,0.5,0.1,0.7-0.1c0.2-0.2,0.3-0.5,0.1-0.7l-1.2-2.1l2-1.2c0.2-0.2,0.3-0.4,0.3-0.6c-0.1-0.2-0.3-0.4-0.5-0.4l-2.4,0l0-2.4
	c0-0.2-0.2-0.5-0.4-0.6C18,4.9,17.7,5,17.6,5.2l-1.2,2l-2.1-1.2C14,6,13.9,6,13.7,6.1c0,0-0.1,0.1-0.1,0.1c-0.2,0.2-0.2,0.4-0.1,0.7
	l1.2,2.1l-2,1.2C12.4,10.3,12.3,10.5,12.3,10.8z M15.8,10.1l-1,0l0.8-0.5c0.2-0.2,0.4-0.5,0.2-0.8l-0.5-0.8l0.8,0.4
	c0.3,0.2,0.6,0,0.8-0.2l0.5-0.8l0,0.9c0,0.3,0.3,0.5,0.6,0.6l1,0l-0.8,0.5c-0.2,0.2-0.4,0.5-0.2,0.8l0.5,0.8l-0.8-0.4
	c-0.3-0.2-0.6,0-0.8,0.2l-0.5,0.8l0-0.9C16.4,10.4,16.1,10.1,15.8,10.1z"/>
</svg>
