<?xml version="1.0" encoding="utf-8"?>
<!-- Generator: Adobe Illustrator 22.0.1, SVG Export Plug-In . SVG Version: 6.00 Build 0)  -->
<svg version="1.1" id="Calque_1" xmlns="http://www.w3.org/2000/svg" xmlns:xlink="http://www.w3.org/1999/xlink" x="0px" y="0px"
	 viewBox="0 0 96 96" style="enable-background:new 0 0 96 96;" xml:space="preserve">
   <style type="text/css">
	.st0{fill:#A3BCCC;}
</style>
<g id="Calque_1_1_">
	<g>
		<path  class="st0" d="M30.6,16.4c0.1-0.6-0.2-1.2-0.7-1.4l-5-2.5l2.4-5.1c0.3-0.5,0.1-1.2-0.3-1.6c-0.4-0.4-1.1-0.4-1.6-0.1l-4.7,3l-3.2-4.6
			c-0.3-0.5-1-0.7-1.5-0.5c-0.6,0.2-1,0.7-1,1.3l0.3,5.6L9.8,11c-0.6,0.1-1.1,0.5-1.2,1.1c-0.1,0.6,0.2,1.2,0.7,1.4l5,2.5l-2.4,5.1
			c-0.3,0.5-0.1,1.2,0.3,1.6c0.4,0.4,1.1,0.4,1.6,0.1l4.7-3l3.2,4.6c0.3,0.4,0.7,0.6,1.1,0.6c0.1,0,0.3,0,0.4-0.1
			c0.6-0.2,0.9-0.7,0.9-1.3L23.8,18l5.6-0.5C30,17.4,30.4,17,30.6,16.4z M22.5,14.2l2,1l-2.2,0.2c-0.7,0.1-1.3,0.7-1.2,1.4l0.1,2.2
			l-1.3-1.8c-0.4-0.6-1.2-0.7-1.8-0.4L16.3,18l0.9-2c0.3-0.7,0-1.4-0.6-1.8l-2-1l2.2-0.2c0.7-0.1,1.3-0.7,1.2-1.4l-0.1-2.2l1.3,1.8
			c0.4,0.6,1.2,0.7,1.8,0.4l1.9-1.2l-0.9,2C21.6,13.1,21.9,13.9,22.5,14.2z"/>
		<path  class="st0" d="M45.9,71c0.5,0.6,0.4,1.4-0.2,1.9c-0.3,0.3-0.6,0.5-0.9,0.8C44.6,73.9,44.3,74,44,74c-0.4,0-0.8-0.2-1-0.5
			c-0.5-0.6-0.4-1.4,0.2-1.9c0.3-0.2,0.6-0.5,0.9-0.7C44.6,70.4,45.5,70.5,45.9,71z"/>
		<path  class="st0" d="M7.6,77C16.7,88.2,30,94,43.3,94l0,0c10.2,0,20.4-3.4,28.9-10.3c11.1-9,17-22.3,17-35.8c0-8.2-2.2-16.5-6.7-23.9l0,0
			C74.2,10.3,59.3,2,43.3,2c-1.3,0-2.6,0.1-3.8,0.2c-1.6,0.1-2.9,1.2-3.4,2.7S36,8.1,37.2,9.1c7.4,6.9,11.3,16.4,11.3,26
			c0,5.7-1.3,11.3-4.1,16.6C38.1,63.3,26,70.5,12.9,70.5c-0.7,0-1.3,0-2-0.1c-1.6-0.1-3.1,0.8-3.8,2.2C6.4,74,6.6,75.7,7.6,77z
			 M19.9,77.9c13.3-2.2,25-10.4,31.4-22.6c3.4-6.4,5.1-13.4,5.1-20.3c0-8.7-2.6-17.3-7.7-24.7c11.1,1.6,21.1,8,27.1,17.9l0,0
			c3.7,6.1,5.5,13,5.5,19.7c0,11.1-4.9,22.1-14.1,29.6c-7,5.7-15.5,8.5-23.9,8.5c-5.9,0-11.8-1.4-17.2-4.1c4.3-0.7,8.4-2.1,12.2-4
			c0.7-0.3,0.9-1.1,0.6-1.8c-0.3-0.7-1.1-0.9-1.8-0.6c-4.5,2.4-9.6,3.8-14.8,4.2C21.5,79.1,20.7,78.6,19.9,77.9z"/>
	</g>
</g>
</svg>


